<svg xmlns="http://www.w3.org/2000/svg" viewBox="0 0 600 150" width="600" height="150">
  <!-- Logo Virtus International Awards - Versión horizontal -->
  
  <!-- V con laurel (más pequeño) -->
  <g transform="scale(0.6) translate(0, -20)">
    <!-- Rama de laurel izquierda -->
    <g fill="#3C542E">
      <path d="M20 90c-4-2-6-6-4-10s6-6 10-4 6 6 4 10-6 6-10 4z"/>
      <path d="M15 80c-3-1-4-4-3-7s4-4 7-3 4 4 3 7-4 4-7 3z"/>
      <path d="M18 100c-3-1-4-4-3-7s4-4 7-3 4 4 3 7-4 4-7 3z"/>
      <path d="M10 70c-2-1-3-3-2-5s3-3 5-2 3 3 2 5-3 3-5 2z"/>
      <path d="M12 110c-2-1-3-3-2-5s3-3 5-2 3 3 2 5-3 3-5 2z"/>
      <path d="M5 60c-1-1-2-2-1-3s2-2 3-1 2 2 1 3-2 2-3 1z"/>
      <path d="M8 120c-2-1-3-3-2-5s3-3 5-2 3 3 2 5-3 3-5 2z"/>
      
      <path d="M5 55 Q15 65 25 75 Q35 85 45 95 Q55 105 65 115 Q75 125 85 135" 
            stroke="#3C542E" stroke-width="2" fill="none"/>
    </g>
    
    <!-- Rama de laurel derecha -->
    <g fill="#3C542E">
      <path d="M120 90c4-2 6-6 4-10s-6-6-10-4-6 6-4 10 6 6 10 4z"/>
      <path d="M125 80c3-1 4-4 3-7s-4-4-7-3-4 4-3 7 4 4 7 3z"/>
      <path d="M122 100c3-1 4-4 3-7s-4-4-7-3-4 4-3 7 4 4 7 3z"/>
      <path d="M130 70c2-1 3-3 2-5s-3-3-5-2-3 3-2 5 3 3 5 2z"/>
      <path d="M128 110c2-1 3-3 2-5s-3-3-5-2-3 3-2 5 3 3 5 2z"/>
      <path d="M135 60c1-1 2-2 1-3s-2-2-3-1-2 2-1 3 2 2 3 1z"/>
      <path d="M132 120c2-1 3-3 2-5s-3-3-5-2-3 3-2 5 3 3 5 2z"/>
      
      <path d="M135 55 Q125 65 115 75 Q105 85 95 95 Q85 105 75 115 Q65 125 55 135" 
            stroke="#3C542E" stroke-width="2" fill="none"/>
    </g>
    
    <!-- Lazo -->
    <path d="M85 135 Q90 140 95 145 Q100 150 105 145 Q110 140 115 135" 
          stroke="#3C542E" stroke-width="2" fill="none"/>
    
    <!-- V -->
    <path d="M40 10 L60 10 L80 80 L100 10 L120 10 L90 100 L70 100 L40 10 Z" fill="#9B8658"/>
    <circle cx="80" cy="25" r="4" fill="#9B8658"/>
  </g>
  
  <!-- Texto VIRTUS -->
  <g fill="#9B8658" font-family="serif" font-weight="bold">
    <text x="160" y="60" font-size="36" letter-spacing="2px">VIRTUS</text>
  </g>
  
  <!-- Texto INTERNATIONAL AWARDS -->
  <g fill="#9B8658" font-family="serif" font-weight="normal">
    <text x="160" y="85" font-size="14" letter-spacing="6px">INTERNATIONAL AWARDS</text>
  </g>
</svg>